<?xml version="1.0" encoding="utf-8"?>
<!-- Generator: Adobe Illustrator 16.0.0, SVG Export Plug-In . SVG Version: 6.00 Build 0)  -->
<!DOCTYPE svg PUBLIC "-//W3C//DTD SVG 1.1//EN" "http://www.w3.org/Graphics/SVG/1.1/DTD/svg11.dtd">
<svg version="1.1" id="圖層_1" xmlns="http://www.w3.org/2000/svg" xmlns:xlink="http://www.w3.org/1999/xlink" x="0px" y="0px"
	 width="649.339px" height="668.147px" viewBox="-887.5 682.5 649.339 668.147"
	 enable-background="new -887.5 682.5 649.339 668.147" xml:space="preserve">
<g>
	<path fill="#5ABADB" d="M-238.161,1011.377c0,175.202-142.029,317.232-317.235,317.232c-175.208,0-317.236-142.03-317.236-317.232
		c0-175.211,142.029-317.24,317.236-317.24C-380.19,694.137-238.161,836.166-238.161,1011.377z"/>
	<path fill="#FFFFFF" d="M-319.235,1001.763c0,124.678-101.075,225.753-225.757,225.753c-124.682,0-225.757-101.075-225.757-225.753
		c0-124.686,101.075-225.761,225.757-225.761C-420.31,776.002-319.235,877.077-319.235,1001.763z"/>
	<path fill="#FFFFFF" d="M-698.447,1140.455c0,0-10.332,72.312,0,87.061c10.332,14.75,97.384-19.184,97.384-19.184"/>
	<path fill="#5ABADB" d="M-676.314,1053.404l59.205-73.782c0,0,32.283-33.925,57.363-13.271
		c25.082,20.655,38.361,28.029,38.361,28.029s8.853,2.956,22.133-5.897c13.279-8.852,59.023-44.264,59.023-44.264
		s28.038-14.759,13.279,20.653c-14.757,35.412-57.545,88.531-57.545,88.531s-22.262,36.891-64.988,0
		c-42.727-36.892-42.727-32.465-66.333-13.28c-23.606,19.186-56.067,48.692-72.299,39.839
		C-688.115,1079.962-689.2,1070.685-676.314,1053.404z"/>
</g>
</svg>
